<?xml version="1.0" encoding="utf-8"?>
<!-- Generator: Adobe Illustrator 15.0.0, SVG Export Plug-In . SVG Version: 6.00 Build 0)  -->
<!DOCTYPE svg PUBLIC "-//W3C//DTD SVG 1.1//EN" "http://www.w3.org/Graphics/SVG/1.1/DTD/svg11.dtd">
<svg version="1.1" id="Layer_1" xmlns="http://www.w3.org/2000/svg" xmlns:xlink="http://www.w3.org/1999/xlink" x="0px" y="0px"
	 width="414px" height="106px" viewBox="0 0 414 106" enable-background="new 0 0 414 106" xml:space="preserve">
<path fill="#FFFFFF" d="M307.586,67.574c-1.168-1.446-1.553-3.217-3.116-4.347c-1.762,0.756-3.759,0.929-5.303,2.27
	c-0.26,0.227-0.635,0.423-0.968,0.447c-3.078,0.225-5.237,2.216-7.531,3.913c-1.58,1.169-3.162,2.342-4.394,3.922
	c-0.475,0.609-1.034,1.306-2.105,0.727c0.15-1.846,1.854-2.535,2.882-3.962c0.543-1.844-0.462-3.474-1.187-4.855
	c-1.521-1.73-3.402-1.712-5.273-2.102c-3.269,0.966-6.214,2.229-8.31,4.919c-0.219,0.279-0.541,0.478-0.807,0.72
	c-1.656,1.507-3.36,2.96-4.61,4.86c-0.289,0.44-0.753,0.764-1.143,1.136c-0.841,0.796-1.726,1.549-2.518,2.391
	c-1.646,1.758-3.245,3.562-4.866,5.35c-0.945,1.273-0.945,1.273-2.286,2.236c2.735-5.992,5.854-11.486,9.478-16.728
	c-0.261-1.215-0.449-2.48-1.771-3.267c-1.146-0.057-2.344-0.546-3.829-0.262c-0.152,0.786-0.463,1.565-0.419,2.322
	c0.101,1.708-0.506,3.165-1.311,4.576c-0.797,1.404-1.646,2.775-2.414,4.061c-0.254,1.227-0.274,2.467-0.763,3.482
	c-1.716,3.554-2.803,7.396-4.932,10.76c-0.229,0.362-0.308,0.829-0.426,1.256c-0.285,1.026-0.549,2.059-0.818,3.077
	c0.156,1.639,0.902,2.871,2.549,3.505c1.625-0.536,2.628-1.774,3.583-3.089c0.526-0.723,1.073-1.438,1.688-2.084
	c1.413-1.495,2.958-2.873,4.293-4.429c1.656-1.929,3.501-3.619,5.52-5.145c1.204-0.911,2.416-1.822,3.55-2.819
	c2.956-2.599,5.317-5.747,7.942-8.651c0.118-0.133,0.265-0.24,0.473-0.421c0.629-0.216,1.341-0.461,2.484-0.853
	c-1.827,4.132-4.085,7.469-6.121,10.932c-2.077,3.529-3.557,7.406-6.163,10.647c-0.229,2.49-0.008,3.413,1.06,4.244
	c0.608,0.192,1.278,0.403,1.854,0.586c1.191-1.911,2.315-3.716,3.404-5.465c2.381-0.94,3.901-2.706,5.273-4.605
	c0.886-1.229,1.571-2.606,2.503-3.792c3.799-4.846,8.179-9.064,13.572-12.13c0.855-0.487,1.729-0.889,2.391-1.695
	c0.592-0.72,1.442-0.997,2.472-0.511c-0.09,0.521-0.072,0.995-0.251,1.382c-2.773,6.044-5.512,12.108-8.407,18.094
	c-0.925,1.914-2.283,3.619-3.485,5.485c-0.199,2.346-0.199,2.346,1.793,4.932c0.975,0.265,1.933,0.278,2.826-0.412
	c0.128-0.206,0.358-0.42,0.396-0.664c0.332-2.182,1.497-4.011,2.454-5.93c1.547-3.104,3.838-5.852,4.5-9.389
	c0.078-0.403,0.49-0.738,0.715-1.124c0.407-0.702,0.915-1.375,1.159-2.133c0.55-1.731,1.516-3.246,2.274-4.866
	C306.126,71.986,306.789,69.747,307.586,67.574"/>
<path fill="#FFFFFF" d="M375.45,69.813c1.665-1.734,1.817-3.827,1.644-6.118c-0.315-0.562-0.669-1.185-0.933-1.651
	c-1.556-1.173-3.264-0.601-4.347-0.966c-1.932,0.576-3.46,1.034-5.039,1.505c-0.856,0.769-1.78,1.606-2.717,2.438
	c-2.138,1.901-4.417,3.671-6.384,5.735c-1.629,1.708-3.29,3.3-5.335,4.547c-1.029,1.754-3.529,4.662-5.167,5.903
	c0.423-2.343,1.345-4.219,2.141-5.335c0.727-2.305,1.039-4.009,1.805-5.477c0.609-1.17,0.957-2.305,0.985-3.569
	c0.031-1.332,0.006-2.666,0.006-3.837c-1.307-1.168-2.544-0.824-3.905-0.585c-1.457,2.427-2.701,4.943-3.05,7.875
	c-0.154,1.29-0.702,2.534-1.068,3.797c-0.363,1.098-0.419,2.388-1.045,3.274c-0.65,0.928-0.913,1.92-1.31,2.899
	c-0.301,0.739-0.617,1.473-0.934,2.205c-0.245,0.572-0.604,1.118-0.732,1.715c-0.428,1.979-1.476,3.577-2.896,4.979
	c-0.375,1.583-0.917,3.027-2.001,4.35c-1.003,1.22-0.895,2.853-0.39,4.396c0.312,0.225,0.583,0.459,0.894,0.634
	c0.303,0.17,0.644,0.274,1.09,0.461c0.772-0.768,1.522-1.526,2.287-2.269c1.547-1.495,3.207-2.888,4.629-4.492
	c2.37-2.675,4.586-5.486,6.999-8.393c1.649,0.009,2.314-1.548,3.211-2.661c0.535-0.998,1.069-1.994,1.602-2.991
	c1.269-0.325,2.496-0.749,3.096-1.611c1.688-2.426,4.174-3.93,6.312-5.807c1.146-1.006,2.46-1.778,3.139-3.306
	c1.245-0.254,2.213-1.513,3.784-0.965c-0.052,0.451-0.024,0.826-0.143,1.146c-0.69,1.849-1.238,3.778-2.163,5.509
	c-2.104,3.942-3.83,8.076-6.301,11.846c-1.136,1.735-2.308,3.354-3.786,4.771c-0.38,0.365-0.81,0.683-1.261,1.059
	c0.11,0.75,0.209,1.443,0.313,2.162c0.754,0.438,1.428,0.827,2.187,1.267c1.282-1.567,2.783-2.795,2.462-4.946
	c1.959-2.638,3.875-5.218,5.808-7.824c0.441-0.817,0.826-1.738,1.385-2.535c1.655-2.36,3.115-4.825,4.304-7.45
	C374.884,70.925,375.037,70.243,375.45,69.813"/>
<path fill="#FFFFFF" d="M404.523,63.224c-0.993,0.181-1.867,0.403-2.757,0.491c-3.227,0.325-6.033,1.594-8.506,3.664
	c-0.481,0.399-1.035,0.713-1.565,1.051c-2.723,1.726-5.449,3.446-8.445,5.339h-0.876c-0.94,1.033-1.751,2.133-2.767,2.985
	c-1.134,0.949-1.96,2.061-2.671,3.326c-1.482,2.642-2.672,5.463-4.537,7.386c-0.276,1.151-0.461,1.916-0.644,2.681
	c-0.187,0.774-0.363,1.546-0.521,2.202c0.646,1.2,1.191,2.224,1.736,3.24c1.064,0.579,2.086,1.136,2.646,1.438
	c2.196,0.276,3.886,0.489,6.329,0.796c3.839-1.104,8.38-2.408,12.933-3.716c0.396-0.856,0.721-1.565,1.005-2.18
	c-0.967-1.458-0.979-1.443-2.461-2.012c-0.781,0.472-1.499,0.984-2.282,1.359c-1.938,0.921-3.863,1.896-5.877,2.63
	c-2.045,0.746-4.222,0.841-6.357,0.323c-1.615-0.392-3.04-1.114-3.58-2.888c0.265-0.981,0.521-1.93,0.74-2.736
	c1.497-1.582,1.727-3.752,3.219-5.192c1.529-1.474,2.91-3.099,4.443-4.754c0.485,0.776,0.86,1.375,1.22,1.954
	c1.074,0.39,2.079,0.76,2.96,1.08h6.626c1.557-0.686,2.941-1.293,3.728-1.639c3.972-2.131,6.995-4.466,9.354-8.325
	c0.101-0.278,0.407-1.117,0.716-1.962C407.453,67.307,407.55,64.315,404.523,63.224 M401.479,69.523
	c-1.318,1.659-2.516,3.463-4.063,4.872c-1.537,1.399-3.649,1.809-5.725,1.772c-1.238-0.021-2.47-0.332-4.284-0.599
	c2.036-1.668,3.614-2.96,5.229-4.283c2.303-1.032,4.714-1.973,6.592-3.939c1.054-0.254,2.081-0.337,2.735,1.092
	C401.831,68.749,401.736,69.199,401.479,69.523"/>
<path fill="#FFFFFF" d="M341.576,68.717v-2.811c-2.709-4.229-2.709-4.229-5.235-5.089c-0.552,0.588-1.153,1.226-1.724,1.835
	c0.118,1.013,0.416,1.929,0.281,2.772c-0.223,1.398-0.066,2.654,0.782,3.851c-1.005,2.561-2.201,4.92-4.031,6.921
	c-0.544,0.594-1.155,1.133-1.642,1.77c-2.185,2.853-4.63,5.45-7.342,7.806c-1.419,1.234-3.052,2.299-4.2,3.747
	c-1.225,1.545-2.973,2.228-4.399,3.407c-2.202,1.829-4.586,3.417-7.68,3.161c-0.256-0.021-0.508-0.147-0.894-0.262
	c-0.277-0.568-0.592-1.2-0.834-1.69c0.055-0.898,0.096-1.613,0.158-2.698c0.895-1.569,1.859-3.507,3.056-5.287
	c0.983-1.467,2.326-2.688,3.35-4.13c0.8-1.121,1.781-1.988,2.8-2.875c3.673-3.213,7.849-5.646,12.115-7.932
	c0.696-0.373,1.502-0.566,2.272-0.781c1.849-0.522,3.521-1.301,4.693-2.884c-1.115-1.774-1.205-1.838-3.344-2.398
	c-1.094,1.851-2.878,2.553-4.917,2.775c-2.002,1.393-3.933,2.88-6.372,3.453c-0.486,0.113-0.911,0.537-1.331,0.859
	c-1.979,1.528-3.955,3.062-5.915,4.616c-0.559,0.442-1.054,0.967-1.574,1.458c-1.163,1.099-2.323,2.197-3.486,3.296
	c-0.073-0.057-0.15-0.113-0.222-0.171c-1.629,3.188-3.254,6.374-4.629,9.073c-0.093,2.093-0.162,3.598-0.219,4.884
	c0.959,1.275,1.77,2.346,2.697,3.577c0.442,0.239,1.063,0.577,1.61,0.875c0.911-0.22,1.718-0.347,2.482-0.609
	c1.919-0.658,3.855-1.157,5.581-2.425c2.66-1.95,5.561-3.568,8.358-5.331c0.372-0.233,0.78-0.434,1.1-0.729
	c1.43-1.316,2.704-2.844,4.279-3.951c1.87-1.318,3.347-3.014,4.653-4.756c2.259-3.01,4.792-5.781,7.085-8.753
	C340.086,71.81,341.247,70.337,341.576,68.717"/>
<path fill="#FFFFFF" d="M112.185,64.859c0.841-0.464,1.331-1.185,1.848-1.949c0.13-0.191,0.26-0.383,0.396-0.57
	c0.164-0.227,0.32-0.463,0.475-0.699c0.388-0.587,0.789-1.196,1.322-1.646c1.926-1.62,3.203-3.76,4.437-5.831
	c0.433-0.724,0.878-1.472,1.345-2.188l0.139-0.212c0.623-0.956,1.212-1.858,2.047-2.637l0.031-0.029l0.043-0.004l5.873-0.413
	c0.14-0.024,0.322-0.061,0.529-0.101c0.582-0.112,1.379-0.266,2.174-0.356c1.379-0.16,2.784-0.277,4.144-0.391
	c0.401-0.035,0.804-0.069,1.205-0.103c1.315-0.116,2.417-0.204,3.466-0.278c0.73-0.05,1.473-0.059,2.191-0.067
	c1.548-0.017,3.147-0.034,4.698-0.483c0.468-0.135,0.936-0.205,1.391-0.205c0.917,0,1.763,0.273,2.514,0.813
	c0.629-0.451,1.178-0.839,1.607-1.143l0.028-0.02l0.032-0.002c0.641-0.053,1.279-0.058,1.895-0.062
	c1.598-0.011,3.107-0.021,4.436-0.874l0.031-0.019l0.74,0.001c2.662,0,2.875-0.039,3.858-0.671
	c-0.096-0.047-0.188-0.096-0.279-0.145c-0.263-0.14-0.504-0.271-0.674-0.232c-0.477,0.113-0.975,0.168-1.521,0.168
	c-0.834,0.001-1.667-0.131-2.472-0.259c-0.373-0.059-0.747-0.118-1.122-0.164c-0.487-0.061-1.043-0.127-1.585-0.11
	c-0.477,0.02-0.963,0.058-1.434,0.097c-0.646,0.052-1.314,0.107-1.973,0.107h-0.069c-0.929-0.007-1.871-0.049-2.784-0.089
	c-0.989-0.044-2.013-0.089-3.018-0.089h-0.112c-3.376,0.014-6.811,0.065-10.131,0.114c-1.11,0.017-2.22,0.033-3.331,0.048
	c-0.662,0.01-1.332,0.006-1.998,0.003c-0.334-0.002-0.67-0.003-1.005-0.003c-0.937,0-2.042,0.011-3.135,0.096l-0.016,0.002
	l-0.017-0.004c-0.233-0.045-0.443-0.103-0.644-0.177l-0.133-0.049l0.068-0.124c0.205-0.369,0.394-0.724,0.578-1.069
	c0.393-0.737,0.765-1.436,1.194-2.093c0.409-0.627,0.856-1.243,1.291-1.84c0.603-0.829,1.227-1.688,1.75-2.581
	c1.034-1.765,2.153-3.636,3.484-5.402c0.179-0.238,0.362-0.473,0.544-0.709c0.94-1.217,1.913-2.476,2.441-3.988
	c0.116-0.329,0.399-0.585,0.674-0.833c0.143-0.128,0.291-0.262,0.409-0.401c0.6-0.707,1.242-1.399,1.864-2.068
	c1.814-1.952,3.692-3.972,4.663-6.589c0.298-0.806,0.499-1.658,0.675-2.41c0.074-0.316,0.144-0.618,0.217-0.895
	c-0.049-0.344-0.089-0.667-0.127-0.973c-0.085-0.7-0.16-1.304-0.312-1.891c-0.07-0.274-0.282-0.529-0.488-0.776
	c-0.075-0.089-0.149-0.179-0.216-0.269c-0.089,0.05-0.169,0.09-0.237,0.125c-0.131,0.066-0.225,0.114-0.255,0.167
	c-1.798,3.161-3.801,6.024-6.234,9.438c-0.57,0.801-1.164,1.605-1.739,2.382c-0.947,1.283-1.927,2.611-2.829,3.956
	c-0.702,1.052-1.517,2.039-2.305,2.992c-0.877,1.063-1.784,2.162-2.535,3.349c-0.411,0.65-0.872,1.28-1.319,1.889
	c-0.182,0.249-0.363,0.497-0.543,0.748c-0.665,0.925-1.331,1.849-1.997,2.774l-1.605,2.229c-0.304,0.424-0.599,0.855-0.893,1.285
	c-1.088,1.594-2.117,3.1-3.559,4.125l-0.058,0.022c-0.401,0.042-0.788,0.094-1.175,0.144l-0.308,0.041l0.186-0.42l-0.047,0.001
	c-2.51,0.087-5.106,0.178-7.645,0.479c-0.323,0.038-0.673-0.028-1.006-0.094c-0.415-0.081-0.813-0.139-1.085-0.04
	c-0.665,0.247-1.343,0.368-2.074,0.368c-1.091,0-2.105-0.27-3.039-0.564l-0.279,0.021c-0.091,0.006-0.141,0.008-0.19,0.015
	c-1.079,0.128-2.179,0.204-3.243,0.277c-1.814,0.124-3.691,0.253-5.51,0.65c-0.472,0.104-1.1,0.068-1.687,0.013
	c-0.427-0.04-0.869-0.08-1.287-0.043c-0.338,0.03-0.672,0.217-1.026,0.414c-0.125,0.072-0.254,0.145-0.386,0.21
	c1.925,2.631,4.67,3.963,8.164,3.963c0.16,0,0.321-0.003,0.482-0.008c1.952-0.065,3.936-0.109,5.855-0.153
	c2.217-0.049,4.507-0.101,6.76-0.184c0.441-0.017,0.885-0.019,1.222-0.019l1.02,0.003c0.938,0,1.721-0.021,2.499-0.115l0.143-0.018
	l-0.005,0.144c-0.009,0.199-0.028,0.427-0.153,0.588c-0.998,1.293-1.96,2.653-2.891,3.971c-2.438,3.448-4.957,7.014-8.443,9.842
	c-0.727,1.722-1.914,3.485-3.629,5.394c-0.77,0.857-1.51,1.764-2.227,2.642c-0.843,1.031-1.713,2.098-2.64,3.095
	c-1.181,1.271-2.247,2.691-3.276,4.065c-0.607,0.81-1.236,1.647-1.881,2.447c-0.321,0.398-0.678,0.777-1.022,1.145
	c-0.837,0.892-1.704,1.814-2.098,3.055c-0.089,0.284-0.347,0.529-0.532,0.69c-1.188,1.025-2.073,2.264-3.01,3.575
	c-0.448,0.628-0.912,1.276-1.41,1.897l-0.032,0.027c-0.202,0.125-0.42,0.227-0.651,0.334c-0.689,0.318-1.401,0.65-1.657,1.625
	l0.616,2.75l2.414,2.096l2.754-1.27c0.702-2.391,1.583-4.869,3.813-6.666c0.509-0.409,0.869-1.041,1.216-1.654
	c0.141-0.245,0.285-0.5,0.439-0.739c0.257-0.398,0.506-0.814,0.747-1.218c0.442-0.74,0.899-1.506,1.431-2.201
	c1.086-1.422,2.284-2.796,3.441-4.124l0.322-0.372c0.433-0.498,0.864-0.997,1.294-1.496c1.467-1.701,2.982-3.461,4.562-5.106
	c2.18-2.271,4.682-4.938,6.764-7.866C111.156,65.752,111.61,65.176,112.185,64.859"/>
<path fill="#FFFFFF" d="M55.711,73.301c1.327-1.988,2.698-4.043,3.019-7.06c-0.181-2.779-0.464-3.323-2.517-4.757
	c-0.229-0.029-0.461-0.043-0.692-0.043c-1.656,0-3.168,0.731-4.629,1.438c-0.459,0.222-0.934,0.452-1.402,0.651
	c-0.931,0.4-1.904,0.757-2.846,1.1c-2.614,0.954-5.318,1.941-7.379,3.959l-0.051,0.029c-0.925,0.281-1.772,0.538-2.501,0.759
	c-2.28,2.485-4.882,4.292-7.571,6.075l-0.236,0.155l0.049-0.278c0.031-0.182,0.049-0.323,0.061-0.435
	c0.022-0.198,0.037-0.318,0.106-0.421c0.402-0.589,0.798-1.199,1.181-1.787c1.398-2.151,2.845-4.376,4.885-6.102
	c0.331-0.282,0.544-0.527,0.673-0.771c0.87-1.668,2.127-3.062,3.341-4.411c0.907-1.006,1.845-2.047,2.613-3.192
	c0.439-0.652,0.961-1.268,1.466-1.862c0.74-0.871,1.506-1.772,2.025-2.81c0.438-0.877,1.104-1.974,1.809-2.266l1.964-2.909
	c1.459-2.161,2.815-4.17,4.18-6.173c0.395-0.58,0.824-1.189,1.339-1.72c0.483-0.497,0.968-0.989,1.453-1.481
	c2.172-2.205,4.419-4.484,6.276-7.056c2.468-3.419,4.464-5.957,6.475-8.232c1.672-1.894,2.206-3.99,1.779-7.003l-4.337-1.607
	c-0.285,0.365-0.571,0.691-0.847,1.008c-0.592,0.679-1.104,1.265-1.359,1.943c-0.86,2.273-2.346,4.077-3.671,5.59
	c-0.22,0.25-0.424,0.551-0.591,0.87c-1.025,1.97-2.433,3.581-4.184,4.787c-0.368,0.817-0.69,1.538-0.827,1.845l-0.02,0.031
	c-0.453,0.518-0.885,0.987-1.303,1.441c-0.891,0.968-1.66,1.803-2.301,2.743c-0.92,1.345-2.17,3.089-3.688,4.651l-0.095,0.097
	c-0.512,0.526-1.093,1.121-1.301,1.775c-0.277,0.869-0.796,1.534-1.298,2.178c-0.09,0.116-0.182,0.231-0.271,0.35
	c-0.382,0.503-0.8,1-1.204,1.479c-0.917,1.09-1.864,2.217-2.437,3.478c-0.834,1.832-1.964,3.492-3.058,5.096
	c-0.642,0.939-1.304,1.912-1.896,2.905c-1.41,2.362-3.09,4.615-4.713,6.793c-0.693,0.93-1.411,1.893-2.096,2.85
	c-0.322,0.447-0.635,0.916-0.94,1.369c-0.689,1.025-1.402,2.089-2.25,3.003c-2.218,2.395-3.957,5.143-5.637,7.799
	c-1.174,1.854-2.603,3.502-3.863,4.956c-0.413,0.476-0.814,0.938-1.191,1.39c-0.197,0.394-0.372,0.771-0.541,1.136
	c-0.328,0.708-0.612,1.32-1.008,1.846c-0.761,1.014-1.619,1.98-2.446,2.914c-0.287,0.323-0.574,0.646-0.858,0.975
	C9.08,93.845,8.402,95.474,8.33,97.23c1.653,1.011,1.643,1.008,3.612,0.646c1.747-1.799,3.462-3.567,5.258-5.419
	c0.034-0.298,0.08-0.702,0.09-0.774l0.02-0.054c0.293-0.43,0.569-0.828,0.832-1.205c0.542-0.776,1.008-1.448,1.438-2.156
	c0.699-1.155,1.501-2.329,2.626-3.087c0.49-0.329,0.999-0.646,1.492-0.952c1.737-1.078,3.532-2.195,4.695-4.027l0.019-0.028
	l0.031-0.016c1.804-0.903,3.339-2.116,4.603-3.183c0.391-0.329,0.808-0.64,1.211-0.939c0.645-0.479,1.309-0.976,1.868-1.551
	c0.907-0.938,2-1.69,3.546-2.438c0.507-0.243,1.001-0.541,1.48-0.829c0.196-0.116,0.392-0.234,0.588-0.349
	c0.157-0.091,0.312-0.188,0.468-0.283c0.29-0.182,0.59-0.368,0.904-0.519c1.459-0.71,3.028-1.467,4.614-2.188
	c1.409-0.642,2.571-0.926,3.769-0.926c0.544,0,1.105,0.062,1.666,0.186l0.165,0.035l-0.086,0.146
	c-0.201,0.339-0.385,0.663-0.561,0.974c-0.35,0.616-0.68,1.197-1.056,1.735c-3.007,4.305-6.705,8.336-9.676,11.575
	c-0.747,0.815-1.588,1.564-2.401,2.289c-0.636,0.567-1.294,1.152-1.901,1.765c-1.234,1.244-2.665,2.285-4.374,3.186
	c-0.123,0.063-0.257,0.109-0.387,0.154c-0.211,0.071-0.411,0.141-0.525,0.271c-1.596,1.797-4.729,3.615-7.629,3.616
	c-1.719,0-3.157-0.648-4.164-1.876c-1.261,0.516-1.865,1.331-1.747,2.362c0.193,1.692,2.363,3.642,4.379,3.937
	c0.349,0.05,0.739,0.076,1.158,0.076c3.395,0,8.385-1.673,10.68-3.579c0.379-0.314,0.71-0.601,1.013-0.863
	c0.604-0.525,1.082-0.938,1.618-1.299c2.867-1.929,6.116-4.115,8.611-7.11c0.364-0.438,0.935-0.674,1.539-0.925
	c0.257-0.104,0.522-0.214,0.769-0.34c0.232-0.4,0.458-0.82,0.675-1.227c0.717-1.338,1.459-2.721,2.667-3.849
	c1.062-0.994,2.065-2.246,3.157-3.94C55.288,73.935,55.5,73.619,55.711,73.301"/>
<path fill="#FFFFFF" d="M171.241,56.889c-0.362,0-0.736,0.018-1.099,0.036c-0.367,0.019-0.747,0.038-1.12,0.038
	c-0.428,0-0.786-0.024-1.12-0.078l-2.98,1.944l-0.01,0.056c-0.119,0.684-0.205,1.182-0.303,1.734
	c0.428,0.658,0.861,1.326,1.341,2.067l0.077,0.119c0.714-0.142,1.384-0.271,2.114-0.413l1.492-0.293l-0.073,0.203
	c-0.121,0.337-0.23,0.668-0.337,0.991c-0.476,1.441-0.886,2.687-2.039,3.642c-0.48,0.398-0.969,0.893-1.492,1.513
	c-0.4,0.475-0.788,0.979-1.163,1.468c-0.705,0.917-1.432,1.865-2.279,2.668c-0.649,0.618-1.282,1.28-1.895,1.919
	c-1.404,1.467-2.855,2.984-4.632,4.109c-0.202,0.127-0.379,0.294-0.567,0.47c-0.074,0.069-0.149,0.141-0.225,0.208
	c-0.5,0.443-0.985,0.927-1.454,1.393c-1.219,1.212-2.478,2.466-4.162,3.2c-0.7,0.304-1.306,0.939-1.82,1.51
	c-1.46,1.625-3.343,2.65-5.165,3.642c-0.512,0.279-1.041,0.567-1.552,0.863c-0.738,0.427-1.395,0.351-1.881-0.223l-0.027-0.03
	l-0.003-0.04c-0.07-1.038,0.523-1.729,1.097-2.395c0.354-0.41,0.719-0.834,0.915-1.332c0.367-0.933,0.87-1.814,1.356-2.667
	c0.212-0.371,0.422-0.74,0.618-1.107l0.035-0.04l2.724-2.024c0.61-1.219,1.371-2.726,2.724-3.846
	c2.943-2.434,6.411-5.333,9.822-8.373c0.242-0.217,0.497-0.427,0.751-0.638c1.017-0.841,2.068-1.709,2.517-3.122l-1.984-3.021
	l-1.328-0.344c-0.216,0.232-0.419,0.473-0.617,0.706c-0.467,0.552-0.909,1.073-1.464,1.449c-2.038,1.383-4.235,2.854-6.494,4.238
	c-2.17,1.328-3.866,2.604-5.092,4.505c-0.5,0.775-1.11,1.492-1.701,2.187c-0.22,0.259-0.439,0.518-0.655,0.778
	c-0.48,0.588-0.97,1.167-1.46,1.747c-1.678,1.987-3.414,4.043-4.737,6.363c-1.773,3.11-2.575,5.679-2.599,8.33
	c-0.005,0.644-0.004,1.284-0.003,2.024l0.002,1.185c0.431,0.591,1.024,1.408,1.552,2.138c1.962,0.167,3.702,0.314,5.447,0.462
	c0.363-0.099,0.729-0.194,1.099-0.291c0.893-0.232,1.814-0.472,2.708-0.765c0.841-0.276,1.558-0.615,2.129-1.009
	c0.706-0.485,1.401-1.016,2.073-1.527c0.799-0.607,1.625-1.237,2.476-1.8c2.48-1.644,4.664-3.601,7.178-6.034
	c0.416-0.402,0.795-0.916,1.097-1.479c0.125-0.233,0.248-0.469,0.37-0.707c0.882-1.7,1.796-3.459,3.512-4.453
	c1.058-0.611,1.751-1.559,2.422-2.475c0.57-0.776,1.158-1.581,1.966-2.177c0.183-0.135,0.375-0.259,0.446-0.305
	c0.251-0.438,0.487-0.858,0.715-1.269c0.515-0.923,1.001-1.795,1.553-2.616c0.508-0.757,1.144-1.434,1.838-1.954
	c2.155-1.615,3.329-3.339,3.588-5.266l-0.922-4.505C173.55,57.044,172.369,56.889,171.241,56.889"/>
<path fill="#FFFFFF" d="M86.741,71.36c1.081-4.7,0.381-6.178-3.554-7.487c-3.159,0.292-6.798,0.903-9.869,3.199
	c-0.103,0.076-0.217,0.128-0.327,0.177c-0.058,0.026-0.115,0.052-0.169,0.08c-4.746,2.496-10.123,5.325-13.894,10.163l-0.334,0.428
	c-1.456,1.862-2.959,3.788-4.039,5.911l-0.017,0.031c-1.028,2.02-2.092,4.108-1.217,6.531c0.16,0.439,0.1,0.949,0.06,1.284
	c-0.012,0.105-0.023,0.19-0.023,0.252c0.471,3.384,2.148,5.448,5.276,6.474c0.456-0.068,0.924-0.134,1.403-0.201
	c1.197-0.168,2.436-0.343,3.669-0.579c2.216-0.43,3.904-0.821,5.471-1.272c1.717-0.494,2.829-1.37,3.398-2.68
	c0.249-0.575,0.53-1.143,0.801-1.69c0.11-0.222,0.219-0.441,0.325-0.661l-0.712-1.967l-0.042-0.027
	c-0.537-0.345-1.042-0.669-1.625-0.669c-0.281,0-0.566,0.071-0.872,0.222l-1.419,2.087c-2.2,1.461-4.938,2.266-7.709,2.266
	c-1.042,0-2.071-0.114-3.061-0.34l-0.069-0.016l-0.02-0.068c-0.26-0.891-0.049-1.777,0.155-2.634
	c0.174-0.737,0.355-1.499,0.241-2.269c-0.136-0.914,0.302-1.695,0.723-2.45c0.357-0.641,0.727-1.302,0.741-2.037l0.001-0.065
	l0.055-0.035c0.476-0.304,0.845-0.728,1.204-1.139c0.525-0.601,1.067-1.224,1.925-1.421l0.031-0.008l0.029,0.008
	c0.63,0.177,1.228,0.345,1.846,0.519l1.141,0.334l1.188,1.032c2.198,0.579,4.067,0.56,6.11-0.06c2.298-0.699,4.225-1.97,5.85-3.107
	c0.418-0.293,0.854-0.542,1.238-0.763c0.133-0.078,0.258-0.148,0.371-0.215c0.991-1.786,2.295-3.22,3.556-4.604
	C85.355,73.038,86.088,72.231,86.741,71.36 M79.938,70.437c-1.624,3.251-4.552,4.538-7.654,5.899
	c-0.865,0.381-1.761,0.773-2.628,1.213l-0.048,0.025l-2.68-0.979l0.105-0.133c0.129-0.162,0.235-0.322,0.33-0.462
	c0.185-0.277,0.346-0.516,0.578-0.64c1.71-0.895,3.419-1.752,5.398-2.743c0.625-0.313,1.276-0.641,1.958-0.983
	c1.25-1.314,1.958-1.902,2.829-1.902c0.454,0,0.962,0.156,1.755,0.541l0.11,0.054L79.938,70.437z"/>
<path fill="#FFFFFF" d="M137.69,70.137c0.346-0.139,0.672-0.268,0.955-0.453c0.731-1.897,2.126-3.205,3.476-4.47
	c0.141-0.132,0.281-0.264,0.421-0.396l-0.22-0.841c-0.878-0.156-1.767-0.312-2.73-0.483l-1.298-0.229
	c-0.17,0.053-0.374,0.092-0.587,0.133c-0.52,0.1-1.108,0.212-1.363,0.547c-0.719,0.938-1.688,1.282-2.625,1.616
	c-0.374,0.132-0.759,0.27-1.12,0.441c-0.291,0.142-0.601,0.272-0.898,0.398c-0.773,0.325-1.573,0.664-2.146,1.204
	c-0.937,0.88-1.994,1.6-3.016,2.295c-0.499,0.34-1.016,0.691-1.51,1.057c-0.538,0.396-1.126,0.701-1.702,0.881
	c-0.205,0.065-0.397,0.186-0.603,0.312c-0.329,0.205-0.671,0.416-1.094,0.416c-0.084,0-0.17-0.007-0.254-0.024l-0.102-0.021
	l0.165-3.416l0.84-1.444c-0.155-0.294-0.303-0.573-0.457-0.865l-0.287-0.544l-1.516,0.129c-0.379,0.612-0.733,1.224-1.077,1.816
	c-0.787,1.356-1.531,2.639-2.468,3.774c-1.033,1.256-1.845,2.655-2.628,4.009c-0.181,0.312-0.362,0.622-0.545,0.934
	c-0.261,0.441-0.485,0.921-0.701,1.383c-0.156,0.334-0.318,0.678-0.493,1.009c-0.42,0.793-0.837,1.589-1.254,2.385
	c-1.191,2.27-2.422,4.617-3.721,6.88c-0.168,0.292-0.33,0.604-0.485,0.903c-0.616,1.184-1.251,2.407-2.531,3.003
	c-0.609,1.433-0.74,2.696-0.435,4.206l1.648,1.395c0.893-0.175,1.573-0.309,2.305-0.451c0.647-0.524,1.319-1.065,1.792-1.447
	c0.176-0.421,0.316-0.836,0.451-1.238c0.283-0.842,0.55-1.637,1.068-2.19c1.626-1.73,2.804-3.787,3.601-6.283l0.014-0.046
	l0.042-0.022c0.255-0.145,0.497-0.285,0.731-0.421c0.513-0.297,0.998-0.577,1.491-0.826c1.221-0.618,2.162-1.598,3.072-2.547
	c0.425-0.443,0.865-0.901,1.329-1.319l0.148-0.134c1.005-0.907,2.043-1.846,3.526-2.091c0.524-0.087,1.042-0.416,1.388-0.658
	c1.624-1.131,3.255-2.317,4.832-3.463l0.193-0.14c0.138-0.101,0.278-0.2,0.417-0.299c0.849-0.6,1.727-1.22,2.188-2.226
	c0.037-0.082,0.114-0.124,0.203-0.173c0.038-0.02,0.078-0.043,0.124-0.071l0.044-0.018c0.434-0.081,0.931-0.171,1.525-0.277
	C136.117,70.764,136.917,70.446,137.69,70.137"/>
<path fill="#FFFFFF" d="M232.894,80.173c-1.069-1.005-1.98-1.86-2.999-2.814c-2.787-0.589-5.669-1.199-8.747-1.851
	c-0.135-0.896-0.279-1.85-0.398-2.631c0.962-1.812,0.954-1.822,2.292-2.828c1.558-1.175,3.129-2.336,5.204-3.88
	c1.545-0.358,3.71-0.854,5.976-1.373c0.15-0.815,0.294-1.588,0.407-2.213c-0.574-1.004-1.058-1.846-1.567-2.738
	c-2.458,0.835-4.982,1.512-7.347,2.557c-1.918,0.848-3.984,1.534-5.568,2.998c-1.117,1.027-2.119,2.177-3.143,3.243
	c-0.324,1.513-0.644,3.006-0.908,4.25c0.172,1.657,0.322,3.076,0.463,4.447c1.202,2.234,2.886,3.509,5.507,3.828
	c1.889,0.229,3.904,0.683,5.508,2.271c-0.148,0.488-0.194,1.043-0.468,1.441c-0.879,1.285-2.232,2.028-3.473,2.928
	c-2.659,1.927-5.658,2.967-8.681,4.002c-1.47,0.624-2.938,1.249-4.479,1.906c-0.782,1.887-3.571,2.022-4.138,4.53
	c0.163,0.345,0.416,0.884,0.626,1.341c1.591,0.315,2.202-0.889,3.024-1.497c3.562-1.509,7.065-2.904,10.49-4.472
	c3.083-1.408,6.307-2.525,9.195-4.36c1.112-0.706,1.96-1.552,2.431-2.766c0.354-0.916,0.669-1.844,1.01-2.771
	C233.034,82.485,232.96,81.244,232.894,80.173"/>
<path fill="#FFFFFF" d="M255.199,67.626c0.451-0.726,0.662-1.603,0.987-2.418c-0.312-0.521-0.594-0.993-0.868-1.453
	c-1.465-0.24-2.813-0.979-4.301-0.17c-0.614,1.496-1.244,3.033-1.706,4.159c-0.804,1.023-1.364,1.682-1.865,2.385
	c-1.383,1.951-2.766,3.903-4.101,5.889c-0.75,1.114-1.703,2.218-2.022,3.465c-0.375,1.472-1.302,2.565-1.98,3.801
	c-0.447,0.815-0.915,1.624-1.338,2.467c-0.496,0.989-1.216,1.866-1.788,2.821c-0.612,1.024-0.957,2.31-1.798,3.065
	c-1.01,0.913-1.02,2.096-1.547,3.036c0.24,0.875,0.449,1.638,0.684,2.501c0.631,0.126,1.232,0.248,1.945,0.391
	c1.669-2.098,3.298-4.146,4.854-6.106c0.265-0.706,0.474-1.308,0.712-1.899c0.589-1.479,1.192-2.957,1.789-4.432
	c0.092-0.221,0.184-0.448,0.309-0.65c2.317-3.7,4.509-7.478,7.536-10.688C252.446,71.935,253.845,69.784,255.199,67.626"/>
<path fill="#FFFFFF" d="M261.344,55.161c-0.192-1.081-0.359-2.025-0.538-3.022c-0.495-0.198-0.98-0.39-1.473-0.588
	c-0.794,0.521-1.532,1.005-2.321,1.521c-0.321,0.684-0.656,1.397-0.989,2.102c0.142,0.716,0.274,1.38,0.393,1.988
	C258.502,57.354,260.192,57.134,261.344,55.161"/>
</svg>
